<?xml version="1.0" standalone="no"?>
<!DOCTYPE svg PUBLIC "-//W3C//DTD SVG 20010904//EN"
 "http://www.w3.org/TR/2001/REC-SVG-20010904/DTD/svg10.dtd">
<svg version="1.0" xmlns="http://www.w3.org/2000/svg"
 width="225.000000pt" height="225.000000pt" viewBox="0 0 225.000000 225.000000"
 preserveAspectRatio="xMidYMid meet">
<metadata>
Created by potrace 1.14, written by Peter Selinger 2001-2017
</metadata>
<g transform="translate(0.000000,225.000000) scale(0.100000,-0.100000)"
fill="#000000" stroke="none">
<path d="M60 1125 l0 -1066 818 3 817 3 65 23 c103 37 169 80 250 161 87 87
131 164 160 277 19 74 20 113 20 871 l0 793 -1065 0 -1065 0 0 -1065z m1860
635 l0 -160 -315 0 -315 0 0 -635 0 -635 -160 0 -160 0 0 635 0 635 -320 0
-320 0 0 160 0 160 795 0 795 0 0 -160z m-1340 -315 l0 -85 -90 0 -90 0 0 85
0 85 90 0 90 0 0 -85z m1270 0 l0 -85 -85 0 -85 0 0 85 0 85 85 0 85 0 0 -85z
m-978 0 l3 -65 -67 0 -68 0 0 65 0 65 64 0 64 0 4 -65z m638 0 l0 -65 -65 0
-65 0 0 65 0 65 65 0 65 0 0 -65z m20 -320 l0 -85 -85 0 -85 0 0 85 0 85 85 0
85 0 0 -85z m-970 0 l0 -65 -70 0 -70 0 0 65 0 65 70 0 70 0 0 -65z m1270 0
l0 -65 -65 0 -65 0 0 65 0 65 65 0 65 0 0 -65z m-980 0 l0 -45 -40 0 -40 0 0
45 0 45 40 0 40 0 0 -45z m660 -315 l0 -70 -65 0 -65 0 0 70 0 70 65 0 65 0 0
-70z m-640 -5 l0 -65 -65 0 -65 0 0 65 0 65 65 0 65 0 0 -65z m-340 5 l0 -40
-40 0 -40 0 0 40 0 40 40 0 40 0 0 -40z m1270 0 l0 -40 -40 0 -40 0 0 40 0 40
40 0 40 0 0 -40z m-1270 -320 l0 -40 -40 0 -40 0 0 40 0 40 40 0 40 0 0 -40z
m320 0 l0 -40 -40 0 -40 0 0 40 0 40 40 0 40 0 0 -40z m640 0 l0 -40 -45 0
-45 0 0 40 0 40 45 0 45 0 0 -40z"/>
</g>
</svg>
